<svg width="306" height="305" viewBox="0 0 306 305" fill="none" xmlns="http://www.w3.org/2000/svg">
<g id="House">
<path id="Vector" d="M270.379 215.654H35.431V298.07H270.379V215.654Z" fill="#E1E5F4"/>
<path id="Vector_2" d="M166.603 232.687H139.207V298.07H166.603V232.687Z" fill="#E972F9"/>
<path id="Vector_3" d="M256.681 118.404H49.1287V194.227H256.681V118.404Z" fill="#E1E5F4"/>
<path id="Vector_4" d="M277.724 123.074H28.0864C27.6696 123.074 27.2624 122.927 26.917 122.651C26.5716 122.375 26.3039 121.983 26.1483 121.525C25.9926 121.068 25.956 120.566 26.0434 120.083C26.1307 119.601 26.338 119.161 26.6385 118.819L94.8646 41.2185V7.41742C94.8653 6.7619 95.0856 6.13345 95.4772 5.66994C95.869 5.20641 96.4001 4.9457 96.9541 4.94495H110.42C110.974 4.94567 111.505 5.20639 111.896 5.66991C112.288 6.13344 112.508 6.7619 112.509 7.41742V21.1502L117.663 15.2887C126.095 5.69716 137.283 0.237709 148.979 0.0075814C160.674 -0.222546 172.009 4.7937 180.707 14.0482L279.121 118.763C279.436 119.097 279.656 119.537 279.755 120.023C279.854 120.509 279.826 121.02 279.675 121.487C279.523 121.954 279.256 122.355 278.908 122.639C278.56 122.922 278.147 123.074 277.724 123.074Z" fill="#4687F1"/>
<path id="Vector_5" d="M103.918 137.635C105.657 137.635 107.377 138.04 108.983 138.826C110.589 139.613 112.048 140.767 113.277 142.221C114.505 143.675 115.479 145.401 116.145 147.301C116.81 149.201 117.153 151.237 117.153 153.294V174.446H90.6857V153.294C90.6857 151.237 91.028 149.201 91.6931 147.301C92.358 145.401 93.3328 143.675 94.5616 142.221C95.7905 140.767 97.2493 139.613 98.8548 138.826C100.46 138.04 102.181 137.635 103.918 137.635Z" fill="white"/>
<path id="Vector_6" d="M152.905 137.909C156.414 137.909 159.78 139.558 162.262 142.496C164.744 145.432 166.138 149.415 166.138 153.568V174.721H139.672V153.568C139.672 149.415 141.066 145.432 143.548 142.496C146.03 139.558 149.396 137.909 152.905 137.909Z" fill="white"/>
<path id="Vector_7" d="M201.891 138.184C205.401 138.184 208.767 139.833 211.249 142.77C213.73 145.706 215.124 149.689 215.124 153.843V174.997H188.658V153.843C188.658 149.689 190.053 145.706 192.534 142.77C195.016 139.833 198.382 138.184 201.891 138.184Z" fill="white"/>
<path id="Vector_8" d="M221.394 231.863C224.903 231.863 228.269 233.512 230.751 236.45C233.232 239.386 234.627 243.368 234.627 247.522V268.675H208.159V247.522C208.159 243.368 209.554 239.386 212.035 236.45C214.517 233.512 217.883 231.863 221.394 231.863Z" fill="white"/>
<path id="Vector_9" d="M90.4535 231.863C93.9632 231.863 97.3291 233.512 99.8108 236.45C102.293 239.386 103.687 243.368 103.687 247.522V268.675H77.2203V247.522C77.2203 245.466 77.5626 243.429 78.2276 241.53C78.8927 239.63 79.8673 237.904 81.0962 236.45C82.325 234.996 83.7838 233.841 85.3894 233.055C86.9949 232.268 88.7157 231.863 90.4535 231.863Z" fill="white"/>
<path id="Vector_10" d="M304.704 216.941L260.631 193.865C260.394 193.741 260.138 193.678 259.88 193.678H49.8314C49.5917 193.678 49.3542 193.732 49.1321 193.838L1.15784 216.914C0.758818 217.107 0.428577 217.457 0.223654 217.905C0.0187307 218.353 -0.0481349 218.872 0.0345059 219.372C0.117146 219.873 0.344153 220.324 0.676669 220.648C1.00918 220.972 1.42654 221.149 1.85728 221.149H14.3043V296.971H12.9113V304.663H292.899V296.971H290.577V221.149H303.953C304.378 221.149 304.791 220.976 305.122 220.658C305.453 220.34 305.682 219.899 305.77 219.405C305.858 218.913 305.8 218.399 305.606 217.95C305.413 217.502 305.093 217.145 304.704 216.941ZM286.863 296.971H18.0189V221.149H286.863V296.971Z" fill="#4687F1"/>
<path id="Vector_11" d="M120.402 171.425H86.5067V178.017H120.402V171.425Z" fill="#CACACA"/>
<path id="Vector_12" d="M170.086 171.425H136.19V178.017H170.086V171.425Z" fill="#CACACA"/>
<path id="Vector_13" d="M219.768 171.425H185.872V178.017H219.768V171.425Z" fill="#CACACA"/>
<path id="Vector_14" d="M238.341 266.478H204.445V273.071H238.341V266.478Z" fill="#CACACA"/>
<path id="Vector_15" d="M106.937 266.478H73.0414V273.071H106.937V266.478Z" fill="#CACACA"/>
<path id="Vector_16" d="M172.074 182.156H136.832V148.797C137.483 133.552 148.493 132.321 158.841 133.139C160.579 133.138 162.3 133.543 163.905 134.33C165.511 135.118 166.969 136.27 168.198 137.725C169.427 139.179 170.402 140.905 171.066 142.805C171.732 144.704 172.074 146.74 172.074 148.797V182.156Z" fill="#E972F9"/>
</g>
</svg>
