<svg width="297" height="241" viewBox="0 0 297 241" fill="none" xmlns="http://www.w3.org/2000/svg">
<g id="House">
<path id="Vector" d="M262.427 170.402H34.3889V235.524H262.427V170.402Z" fill="#E1E5F4"/>
<path id="Vector_2" d="M161.703 183.861H135.113V235.524H161.703V183.861Z" fill="#6C63FF"/>
<path id="Vector_3" d="M249.132 93.5585H47.6837V153.471H249.132V93.5585Z" fill="#E1E5F4"/>
<path id="Vector_4" d="M269.556 97.2487H27.2603C26.8558 97.2487 26.4606 97.1322 26.1253 96.9141C25.7901 96.696 25.5303 96.3863 25.3792 96.0248C25.2281 95.6634 25.1926 95.2666 25.2774 94.8856C25.3622 94.5046 25.5634 94.1567 25.855 93.8866L92.0745 32.5694V5.86098C92.0751 5.34301 92.289 4.84643 92.6691 4.48018C93.0493 4.11392 93.5648 3.90791 94.1025 3.90732H107.172C107.71 3.90789 108.225 4.1139 108.605 4.48016C108.985 4.84642 109.199 5.34301 109.2 5.86098V16.7121L114.202 12.0806C122.386 4.50169 133.245 0.187829 144.597 0.00599055C155.948 -0.175848 166.95 3.78781 175.392 11.1004L270.912 93.8421C271.217 94.1064 271.431 94.4536 271.527 94.8379C271.623 95.2221 271.596 95.6254 271.449 95.9944C271.302 96.3634 271.043 96.6809 270.705 96.9048C270.367 97.1288 269.966 97.2487 269.556 97.2487Z" fill="#EBA3A3"/>
<path id="Vector_5" d="M100.862 108.754C102.549 108.754 104.219 109.074 105.778 109.695C107.336 110.317 108.752 111.229 109.945 112.378C111.137 113.527 112.083 114.891 112.729 116.392C113.374 117.893 113.707 119.502 113.707 121.127V137.841H88.0185V121.127C88.0185 119.502 88.3507 117.893 88.9962 116.392C89.6416 114.891 90.5877 113.527 91.7804 112.378C92.9731 111.229 94.389 110.317 95.9473 109.695C97.5056 109.074 99.1758 108.754 100.862 108.754Z" fill="white"/>
<path id="Vector_6" d="M148.408 108.971C151.814 108.971 155.081 110.274 157.49 112.595C159.899 114.915 161.252 118.062 161.252 121.344V138.058H135.564V121.344C135.564 118.062 136.917 114.915 139.326 112.595C141.735 110.274 145.002 108.971 148.408 108.971Z" fill="white"/>
<path id="Vector_7" d="M195.953 109.188C199.36 109.188 202.627 110.491 205.036 112.812C207.444 115.132 208.797 118.279 208.797 121.561V138.276H183.109V121.561C183.109 118.279 184.463 115.132 186.871 112.812C189.28 110.491 192.547 109.188 195.953 109.188Z" fill="white"/>
<path id="Vector_8" d="M214.882 183.21C218.288 183.21 221.555 184.513 223.964 186.834C226.372 189.154 227.726 192.301 227.726 195.583V212.297H202.037V195.583C202.037 192.301 203.391 189.154 205.799 186.834C208.208 184.513 211.475 183.21 214.882 183.21Z" fill="white"/>
<path id="Vector_9" d="M87.7931 183.21C91.1996 183.21 94.4665 184.513 96.8752 186.834C99.284 189.154 100.637 192.301 100.637 195.583V212.297H74.9491V195.583C74.9491 193.958 75.2813 192.349 75.9268 190.848C76.5723 189.347 77.5183 187.983 78.711 186.834C79.9037 185.685 81.3196 184.773 82.8779 184.152C84.4362 183.53 86.1064 183.21 87.7931 183.21Z" fill="white"/>
<path id="Vector_10" d="M295.742 171.419L252.965 153.185C252.735 153.087 252.487 153.037 252.236 153.037H48.3658C48.1331 153.037 47.9026 153.08 47.687 153.164L1.12379 171.398C0.7365 171.55 0.415972 171.827 0.217076 172.181C0.0181798 172.535 -0.0467192 172.945 0.033491 173.34C0.113701 173.736 0.334031 174.092 0.656767 174.348C0.979503 174.604 1.38458 174.744 1.80265 174.744H13.8836V234.656H12.5316V240.734H284.284V234.656H282.031V174.744H295.013C295.426 174.744 295.827 174.607 296.148 174.356C296.469 174.105 296.691 173.756 296.777 173.366C296.862 172.977 296.806 172.571 296.618 172.216C296.43 171.862 296.12 171.58 295.742 171.419ZM278.426 234.656H17.4889V174.744H278.426V234.656Z" fill="#EBA3A3"/>
<path id="Vector_11" d="M116.861 135.454H83.9624V140.663H116.861V135.454Z" fill="#CACACA"/>
<path id="Vector_12" d="M165.083 135.454H132.184V140.663H165.083V135.454Z" fill="#CACACA"/>
<path id="Vector_13" d="M213.304 135.454H180.405V140.663H213.304V135.454Z" fill="#CACACA"/>
<path id="Vector_14" d="M231.331 210.561H198.432V215.771H231.331V210.561Z" fill="#CACACA"/>
<path id="Vector_15" d="M103.792 210.561H70.8931V215.771H103.792V210.561Z" fill="#CACACA"/>
<path id="Vector_16" d="M167.013 143.933H132.808V117.574C133.439 105.528 144.126 104.555 154.169 105.202C155.856 105.201 157.526 105.521 159.084 106.143C160.643 106.765 162.058 107.676 163.251 108.825C164.444 109.974 165.39 111.338 166.035 112.839C166.681 114.34 167.013 115.949 167.013 117.574V143.933Z" fill="#6C63FF"/>
</g>
</svg>
