<svg width="44" height="76" viewBox="0 0 44 76" fill="none" xmlns="http://www.w3.org/2000/svg">
<g id="Human">
<path id="Vector" d="M43.9178 38.246C44.0129 37.92 44.0257 37.5795 43.9551 37.2487C43.8844 36.9179 43.7322 36.6047 43.5091 36.3312C43.286 36.0577 42.9974 35.8305 42.6637 35.6657C42.33 35.501 41.9593 35.4026 41.5776 35.3774L26.6849 19L23 22.021L38.7324 37.6652C38.7269 38.232 38.958 38.7808 39.3818 39.2077C39.8056 39.6346 40.3927 39.9099 41.0318 39.9814C41.671 40.053 42.3178 39.9159 42.8497 39.5961C43.3816 39.2762 43.7617 38.7959 43.9178 38.246Z" fill="#FFB8B8"/>
<path id="Vector_2" d="M29.559 21.8528L25.0482 24.8021C24.9199 24.886 24.7719 24.9453 24.6142 24.976C24.4566 25.0067 24.2931 25.008 24.1349 24.9798C23.9766 24.9517 23.8273 24.8947 23.6971 24.8129C23.567 24.731 23.459 24.6262 23.3806 24.5055L20.6327 20.2766C20.1338 19.7136 19.9166 19.0046 20.029 18.3051C20.1413 17.6055 20.5739 16.9726 21.232 16.5449C21.89 16.1173 22.7198 15.9298 23.5395 16.0237C24.3592 16.1175 25.1018 16.485 25.6047 17.0456L29.6584 20.401C29.7744 20.4971 29.8648 20.6134 29.9234 20.742C29.982 20.8706 30.0075 21.0085 29.9981 21.1463C29.9887 21.2841 29.9446 21.4185 29.8688 21.5404C29.793 21.6623 29.6874 21.7689 29.559 21.8528Z" fill="#3F3D56"/>
<path id="Vector_3" d="M21 12C24.3137 12 27 9.76144 27 7.00001C27 4.23859 24.3137 2 21 2C17.6863 2 15 4.23859 15 7.00001C15 9.76144 17.6863 12 21 12Z" fill="#FFB8B8"/>
<path id="Vector_4" d="M33.8174 73H37L36.6968 69H32L33.8174 73Z" fill="#FFB8B8"/>
<path id="Vector_5" d="M33 73.0002L39.1075 73C39.6187 73 40.125 73.0751 40.5973 73.2211C41.0695 73.3671 41.4986 73.5811 41.86 73.8509C42.2214 74.1207 42.5081 74.441 42.7037 74.7935C42.8993 75.146 43 75.5238 43 75.9053V75.9997L33.0002 76L33 73.0002Z" fill="#2F2E41"/>
<path id="Vector_6" d="M2 69.6209L4.42614 71L7 66.6901L4.06446 65L2 69.6209Z" fill="#FFB8B8"/>
<path id="Vector_7" d="M2.07621 68L7.18439 70.9602C7.61189 71.2079 7.98339 71.5324 8.27729 71.9147C8.57118 72.2971 8.78192 72.73 8.89747 73.1888C9.01302 73.6475 9.0311 74.1232 8.95071 74.5885C8.87031 75.0538 8.69301 75.4997 8.42892 75.9008L8.36357 76L0 71.1533L2.07621 68Z" fill="#2F2E41"/>
<path id="Vector_8" d="M34.0031 72C33.7765 71.9999 33.5552 71.9417 33.3687 71.8333C33.1822 71.7249 33.0394 71.5712 32.9592 71.3929L21.9304 49.2061C21.9067 49.152 21.8656 49.1043 21.8118 49.0685C21.758 49.0326 21.6935 49.01 21.6253 49.003C21.5572 48.9961 21.4881 49.005 21.4256 49.029C21.3632 49.0529 21.3098 49.0909 21.2713 49.1387L6.11991 69.2214C5.97169 69.4084 5.74861 69.5444 5.49125 69.6047C5.2339 69.665 4.95939 69.6455 4.71766 69.5498L2.64448 68.7357C2.37894 68.6303 2.17293 68.4417 2.07055 68.2102C1.96816 67.9787 1.97753 67.7226 2.09663 67.4969L14.5097 44.2152C14.2387 43.6604 11.5949 37.9635 15.6569 35.149L15.6853 35.134L26.6999 31L26.9776 38.1094L37.9562 70.1602C37.9975 70.2808 38.0098 70.4072 37.9922 70.5318C37.9747 70.6565 37.9277 70.7769 37.8541 70.8861C37.7804 70.9952 37.6815 71.0909 37.5633 71.1674C37.4451 71.244 37.3098 71.2998 37.1656 71.3318L34.2899 71.9685C34.1963 71.9894 34.0999 72 34.0031 72Z" fill="#2F2E41"/>
<path id="Vector_9" d="M27.1996 20.678C26.7837 19.312 26.194 17.9352 25.4039 17.2995C25.1134 17.0677 24.8404 16.8217 24.5864 16.5628C24.0549 16.015 23.3862 15.5667 22.6253 15.248C22.9037 15.1212 23.0669 14.97 23.0669 14.8073C23.0669 14.3614 21.8523 14 20.3539 14C18.8554 14 17.6408 14.3614 17.6408 14.8073C17.6444 14.859 17.6606 14.9097 17.6883 14.9564C17.7159 15.0031 17.7546 15.0448 17.802 15.0792C16.8236 15.4056 15.9733 15.9454 15.344 16.6398C14.7146 17.3343 14.3302 18.1567 14.2326 19.0176C13.8822 22.0884 13.7799 26.0136 15.008 28.4964C16.038 30.5496 16.1199 32.8392 15.2384 34.9381C15.1786 35.0843 15.1713 35.2414 15.2174 35.3908C15.2634 35.5403 15.3608 35.6758 15.4981 35.7814C15.6354 35.8869 15.8067 35.958 15.9919 35.9863C16.177 36.0146 16.3682 35.9989 16.5428 35.941L27.382 32.3669C27.5645 32.3068 27.7208 32.2033 27.8309 32.0699C27.941 31.9365 27.9998 31.7792 27.9998 31.6182V26.19C28.0085 24.3329 27.7398 22.4818 27.1996 20.678Z" fill="#3F3D56"/>
<path id="Vector_10" d="M6.37986 43.9382C6.76827 43.8641 7.13217 43.7208 7.44594 43.5185C7.75971 43.3161 8.01571 43.0597 8.19591 42.7672C8.37612 42.4747 8.47614 42.1533 8.48894 41.8256C8.50173 41.4979 8.427 41.1719 8.26998 40.8705L17 21.9399L12.5729 21L4.49802 39.7356C3.89978 39.9861 3.43406 40.4083 3.1891 40.9223C2.94413 41.4362 2.93694 42.0062 3.16889 42.5242C3.40085 43.0422 3.85584 43.4723 4.44763 43.7329C5.03943 43.9935 5.72694 44.0666 6.37986 43.9382Z" fill="#FFB8B8"/>
<path id="Vector_11" d="M16.6319 25.9005L11.6299 23.6404C11.4876 23.5761 11.3613 23.4829 11.2597 23.3672C11.158 23.2516 11.0834 23.1161 11.0408 22.9701C10.9983 22.8241 10.9889 22.6709 11.0132 22.5211C11.0375 22.3712 11.095 22.2282 11.1817 22.1017L14.2216 17.6702C14.5672 16.9702 15.1861 16.4309 15.9427 16.1704C16.6993 15.9099 17.5321 15.9493 18.2586 16.2801C18.9852 16.6109 19.5463 17.2061 19.8193 17.9353C20.0923 18.6646 20.0548 19.4686 19.715 20.1712L18.1431 25.2471C18.0981 25.3924 18.0211 25.5266 17.9174 25.6406C17.8138 25.7546 17.6859 25.8458 17.5425 25.9078C17.3991 25.9698 17.2435 26.0012 17.0864 26C16.9292 25.9987 16.7742 25.9648 16.6319 25.9005Z" fill="#3F3D56"/>
<path id="Vector_12" d="M29.8859 6.20708C30.1502 6.23475 30.4179 6.19198 30.6546 6.08427C31.0868 5.83424 31.0442 5.26589 30.898 4.82796C30.5335 3.77819 29.8758 2.82649 28.9855 2.06067C28.0952 1.29485 27.001 0.739602 25.8039 0.446152C24.9696 0.25018 23.9141 0.257763 23.4369 0.893533C22.2376 0.187361 20.7918 -0.115543 19.3615 0.0397421C17.9313 0.195027 16.6113 0.798219 15.641 1.73994C14.6928 2.72333 14.0607 3.91371 13.8108 5.18678C13.31 7.35514 11.1658 11.828 12.3536 13.7762C13.144 15.0725 16.7816 14.0625 18.3203 14.6271C19.0867 14.9218 19.9234 15.0449 20.7565 14.9854C21.5895 14.926 22.393 14.6859 23.096 14.2863C23.784 13.8667 24.3011 13.2627 24.5709 12.5634C24.8408 11.8641 24.8492 11.1067 24.5948 10.4029C24.3254 9.88555 24.0148 9.38582 23.6654 8.90744C23.3145 8.42329 23.1713 7.84409 23.2618 7.27472C23.4772 6.40853 28.1022 6.17462 29.8859 6.20708Z" fill="#2F2E41"/>
</g>
</svg>
