<svg width="188" height="163" viewBox="0 0 188 163" fill="none" xmlns="http://www.w3.org/2000/svg">
<g id="Search">
<path id="Vector" d="M29.4075 90.0601V90.0654C29.4075 90.0707 29.413 90.0707 29.4185 90.0707L29.4075 90.0601ZM15.6508 49.5476C15.6287 49.6806 15.6011 49.8136 15.579 49.9467C15.6011 49.8136 15.6287 49.6806 15.6564 49.5476H15.6508ZM14.966 54.4581C14.9495 54.6602 14.9329 54.8624 14.9218 55.0646C14.9329 54.8624 14.9494 54.6602 14.9716 54.4581C14.9706 54.4208 14.9725 54.3834 14.9771 54.3464C14.9716 54.3836 14.9716 54.4208 14.966 54.4581ZM29.4075 90.0654C29.4075 90.0707 29.413 90.0707 29.4185 90.0707L29.4075 90.0601V90.0654ZM15.6508 49.5476C15.6287 49.6806 15.6011 49.8136 15.579 49.9467C15.6011 49.8136 15.6287 49.6806 15.6564 49.5476H15.6508ZM14.9218 55.0646C14.9329 54.8624 14.9494 54.6602 14.9716 54.4581C14.9706 54.4208 14.9725 54.3834 14.9771 54.3464C14.9716 54.3836 14.9716 54.4208 14.966 54.4581C14.9495 54.6602 14.9329 54.8624 14.9218 55.0646ZM185.536 152.933C185.428 152.823 185.314 152.72 185.193 152.624L185.188 152.619L157.84 130.386L157.133 129.812L154.444 127.625L153.77 127.077L149.937 123.96L148.888 123.108L146.718 121.342L145.608 120.438L135.137 111.931L129.134 107.052L128.327 106.398L110.639 92.0179C110.909 91.6455 111.174 91.2731 111.434 90.8954C111.644 90.5815 111.854 90.2729 112.064 89.959C112.086 89.9218 112.113 89.8845 112.135 89.8473C112.257 89.6664 112.373 89.4802 112.489 89.2993C112.555 89.2036 112.616 89.1078 112.671 89.0121C112.759 88.8791 112.848 88.7407 112.931 88.6024C113.013 88.4694 113.096 88.3311 113.179 88.1928C113.566 87.5703 113.93 86.9425 114.284 86.3095L114.317 86.2509L114.598 85.7349C114.775 85.421 114.946 85.1018 115.112 84.7826C115.119 84.7754 115.123 84.7659 115.123 84.756C115.294 84.4315 115.465 84.1017 115.626 83.7718C115.631 83.7665 115.631 83.7558 115.637 83.7505C115.841 83.3409 116.04 82.9312 116.233 82.5109C116.283 82.4152 116.327 82.3194 116.371 82.2237C116.553 81.8193 116.736 81.4097 116.912 81.0001C117.095 80.5798 117.271 80.1541 117.443 79.7285C117.614 79.3029 117.785 78.872 117.945 78.4464C118.249 77.6324 118.534 76.8167 118.801 75.9992C118.813 75.9523 118.828 75.9062 118.845 75.8608C118.983 75.4246 119.116 74.9937 119.248 74.5574C119.331 74.2754 119.409 73.9988 119.486 73.7168C119.541 73.5147 119.596 73.3125 119.646 73.1104C119.674 73.0306 119.69 72.9561 119.712 72.8763C119.784 72.605 119.85 72.339 119.917 72.0676C119.928 72.025 119.939 71.9772 119.95 71.9346C120.082 71.3867 120.209 70.8334 120.325 70.2854C120.386 70.0088 120.441 69.7321 120.496 69.4555C120.601 68.9022 120.706 68.3489 120.795 67.7956C120.839 67.5349 120.877 67.2742 120.916 67.0135C120.955 66.7795 120.988 66.5454 121.021 66.3166C121.065 66.0187 121.104 65.7261 121.137 65.4282C121.281 64.2524 121.386 63.082 121.452 61.9062C121.474 61.5551 121.491 61.204 121.507 60.8475C121.524 60.4379 121.535 60.0336 121.54 59.6239C121.546 59.2834 121.551 58.9377 121.551 58.5971C121.551 57.5704 121.524 56.5489 121.468 55.5221C121.38 53.8782 121.22 52.2414 120.988 50.6117C119.009 36.6808 111.893 23.9012 100.939 14.6087C89.9848 5.31624 75.9254 0.131593 61.3303 0.00247105C46.7351 -0.12665 32.5792 4.80837 21.45 13.9055C10.3208 23.0026 2.96168 35.6542 0.71779 49.5477C0.662642 49.8988 0.607379 50.2552 0.557649 50.6117C0.375493 51.8885 0.239275 53.1706 0.148985 54.4581C0.121477 54.8146 0.0993633 55.1657 0.0827846 55.5221C-0.406735 64.5431 1.27968 73.5507 5.00977 81.8386C8.73986 90.1265 14.4122 97.4693 21.582 103.291C22.9185 104.377 24.288 105.398 25.6908 106.356C25.6963 106.361 25.7018 106.361 25.7073 106.366C26.1768 106.685 26.6462 106.999 27.1211 107.308C27.8777 107.787 28.6398 108.255 29.4074 108.702C29.4682 108.734 29.529 108.771 29.5897 108.803C30.2524 109.186 30.9207 109.553 31.5889 109.909H31.5943C34.0819 111.227 36.6639 112.372 39.3205 113.336C47.1153 116.161 55.4284 117.417 63.7468 117.028H63.7632C73.4721 116.575 82.9256 113.88 91.3264 109.17C92.5469 108.489 93.7507 107.76 94.9271 106.983C95.2197 106.792 95.5179 106.595 95.8051 106.398C96.1586 106.159 96.5119 105.909 96.8655 105.659C96.871 105.659 96.871 105.653 96.8765 105.653C96.9028 105.632 96.9304 105.613 96.9593 105.595C97.1967 105.419 97.4397 105.244 97.6717 105.073C97.7326 105.031 97.7932 104.988 97.8539 104.94C97.87 104.93 97.8849 104.917 97.8981 104.903C98.0362 104.807 98.1687 104.701 98.3068 104.6C98.4449 104.499 98.5774 104.392 98.7155 104.286C98.7389 104.272 98.761 104.256 98.7818 104.238C98.9364 104.116 99.0911 103.999 99.2456 103.876C99.4057 103.754 99.5604 103.626 99.7095 103.504C99.8642 103.382 100.013 103.259 100.168 103.132C100.3 103.025 100.439 102.913 100.571 102.796C100.615 102.764 100.654 102.727 100.698 102.69C100.715 102.674 100.734 102.66 100.753 102.647C100.936 102.498 101.112 102.344 101.289 102.19C101.333 102.153 101.372 102.115 101.416 102.078C101.687 101.844 101.957 101.61 102.222 101.365C102.283 101.312 102.349 101.254 102.41 101.2C102.471 101.147 102.526 101.094 102.587 101.041C102.664 100.966 102.747 100.897 102.824 100.823C103.023 100.642 103.216 100.456 103.415 100.269L104.067 100.801L104.304 100.993H104.31L104.382 101.057L104.641 101.264L108.496 104.403L108.579 104.472L108.645 104.52L109.081 104.876L109.954 105.589L110.827 106.297L110.954 106.398L115.013 109.697L115.576 110.154L119.491 113.336L139.759 129.812L140.466 130.386L168.206 152.933L175.319 158.716L177.964 160.865C178.526 161.323 179.175 161.67 179.876 161.885C180.577 162.101 181.314 162.181 182.047 162.122C182.78 162.063 183.494 161.865 184.147 161.54C184.801 161.214 185.381 160.768 185.856 160.227C186.253 159.777 186.569 159.267 186.789 158.716C187.19 157.74 187.285 156.671 187.062 155.643C186.84 154.615 186.309 153.673 185.536 152.933ZM25.5638 29.6079C31.1041 23.2831 38.3889 18.5973 46.5765 16.0917C54.7641 13.5862 63.5204 13.3631 71.834 15.4484C80.1476 17.5336 87.6793 21.842 93.5588 27.876C99.4384 33.9099 103.426 41.4231 105.061 49.5476C105.133 49.9041 105.199 50.2552 105.26 50.6117C105.486 51.8832 105.652 53.1706 105.751 54.4581C105.779 54.8145 105.806 55.1656 105.823 55.5221C105.873 56.3201 105.895 57.1234 105.895 57.9215C105.898 62.7622 105.066 67.5697 103.432 72.1474V72.1527C101.606 77.2854 98.8022 82.0449 95.1645 86.1871C95.0872 86.2722 95.0099 86.3627 94.9271 86.4478C94.198 87.2777 93.4304 88.0758 92.6406 88.8366C92.6352 88.8419 92.6296 88.8525 92.6242 88.8578C92.3535 89.1185 92.0773 89.3845 91.8012 89.6292C91.2379 90.1559 90.6637 90.656 90.0782 91.1348C89.2001 91.8743 88.2999 92.5677 87.3778 93.215C87.0685 93.4331 86.7592 93.646 86.4444 93.8587C86.1352 94.0715 85.8204 94.2737 85.5055 94.4758C84.8759 94.8802 84.2353 95.2685 83.5892 95.6356C83.2689 95.8218 82.9376 96.0027 82.6117 96.1783C82.2858 96.3591 81.9546 96.5294 81.6232 96.6943C81.2919 96.8646 80.9605 97.0294 80.6237 97.1891C79.9554 97.5136 79.2816 97.8168 78.5968 98.0988C78.2545 98.2477 77.9121 98.3861 77.5696 98.5138C77.3543 98.5989 77.1443 98.684 76.929 98.7585C76.8448 98.796 76.7581 98.828 76.6694 98.8543C76.5535 98.9021 76.4375 98.9447 76.3216 98.982C76.2839 98.9984 76.2452 99.0126 76.2056 99.0245C75.9681 99.115 75.7361 99.1948 75.4932 99.2746C75.1452 99.3969 74.7972 99.5087 74.4438 99.6151C74.0904 99.7268 73.7425 99.8331 73.3891 99.9289C73.0355 100.035 72.6767 100.131 72.3231 100.222C71.9642 100.317 71.6108 100.408 71.2518 100.488C70.8708 100.583 70.4897 100.668 70.103 100.748C69.7662 100.823 69.4348 100.887 69.098 100.945C68.7832 101.009 68.463 101.062 68.1482 101.115C67.7064 101.19 67.2645 101.259 66.8173 101.318C66.5742 101.355 66.3368 101.387 66.0938 101.408C65.9889 101.424 65.8894 101.435 65.7901 101.445C65.4808 101.488 65.1715 101.52 64.8677 101.546C64.7849 101.552 64.7077 101.562 64.6303 101.568C64.2935 101.599 63.951 101.626 63.6141 101.653C62.8907 101.701 62.1728 101.732 61.4493 101.748C61.0848 101.754 60.7147 101.759 60.3503 101.759C59.9858 101.759 59.6213 101.754 59.2568 101.743C59.2568 101.743 59.2568 101.748 59.2513 101.743C59.2458 101.748 59.2458 101.748 59.2403 101.743C59.2395 101.744 59.2387 101.744 59.2377 101.745C59.2368 101.745 59.2358 101.745 59.2347 101.745C59.2337 101.745 59.2327 101.745 59.2317 101.745C59.2308 101.744 59.2299 101.744 59.2292 101.743C59.2112 101.748 59.192 101.748 59.1741 101.743C58.9145 101.743 58.6548 101.732 58.4008 101.716C58.2131 101.711 58.0198 101.706 57.8265 101.69C57.5671 101.679 57.3075 101.663 57.0479 101.642C56.9651 101.642 56.8822 101.631 56.7994 101.626C56.7605 101.625 56.7217 101.622 56.6834 101.615C56.4183 101.594 56.1477 101.573 55.8825 101.546C55.7501 101.536 55.612 101.525 55.4794 101.509C55.0762 101.466 54.6731 101.419 54.2755 101.365C53.8226 101.312 53.3698 101.248 52.9225 101.169C52.7127 101.142 52.5083 101.105 52.3039 101.067C52.0334 101.025 51.7628 100.977 51.4922 100.924C51.2104 100.871 50.9289 100.817 50.6471 100.754C50.4207 100.706 50.1888 100.658 49.9624 100.605C49.8519 100.583 49.7415 100.557 49.6366 100.53C49.0567 100.397 48.4823 100.254 47.9135 100.094C47.5546 99.9981 47.1955 99.8971 46.8421 99.7906C46.3561 99.647 45.8757 99.4928 45.3953 99.3278C45.2075 99.2693 45.0252 99.2054 44.8374 99.1363C44.6497 99.0778 44.4674 99.0086 44.2797 98.9394C44.1085 98.8809 43.9373 98.8171 43.7716 98.7532C43.4954 98.6521 43.2248 98.5458 42.9542 98.4394C42.3964 98.2212 41.8497 97.9924 41.303 97.7478C40.9937 97.6041 40.6845 97.4658 40.3807 97.3222C39.1824 96.7635 38.0024 96.1428 36.8407 95.4601C36.5535 95.2952 36.2664 95.1197 35.9793 94.9441C35.6202 94.7313 35.2724 94.5078 34.9245 94.2844C34.7312 94.1567 34.5434 94.0343 34.3555 93.9067C34.0077 93.6726 33.6652 93.4331 33.3284 93.1937C33.1517 93.0714 32.9749 92.9437 32.8038 92.816C32.1907 92.3691 31.5888 91.9009 30.9979 91.4221C30.7163 91.1934 30.4346 90.9593 30.1585 90.7199C30.0425 90.6241 29.9264 90.523 29.8105 90.422C29.6781 90.3049 29.5455 90.1931 29.4185 90.0707L29.4075 90.0601C29.2142 89.8952 29.0208 89.7197 28.833 89.5442C28.5404 89.2782 28.2532 89.0068 27.9771 88.7302C27.6899 88.4589 27.4138 88.1769 27.1432 87.9003C26.8671 87.6236 26.602 87.3416 26.3424 87.0543C26.0774 86.7724 25.8178 86.4852 25.5637 86.1925C25.3152 85.9159 25.0722 85.6286 24.8402 85.3466C24.2769 84.6763 23.7394 83.9935 23.2277 83.2984C22.9902 82.9792 22.7638 82.6599 22.5429 82.3355C22.3054 82.0056 22.0789 81.6704 21.8636 81.3352C21.6372 81.0001 21.4218 80.6596 21.2119 80.3138C21.2066 80.302 21.1991 80.2912 21.1899 80.2819C20.7757 79.6062 20.378 78.9253 20.008 78.2336C19.6269 77.5314 19.268 76.822 18.9311 76.1056C18.76 75.7491 18.5943 75.3874 18.4396 75.0257C18.1193 74.2967 17.8211 73.5679 17.5449 72.8284C17.4069 72.472 17.2798 72.1155 17.1528 71.7537C17.1488 71.7298 17.1414 71.7066 17.1307 71.6846C16.8767 70.9504 16.6448 70.211 16.4404 69.4661C16.4349 69.4555 16.4349 69.4449 16.4294 69.4343C16.3245 69.0671 16.2251 68.7 16.1368 68.3276C16.0483 68.0031 15.9711 67.6786 15.8992 67.3487C15.8164 66.9816 15.7336 66.6146 15.6618 66.2422C15.6231 66.0506 15.5845 65.8591 15.5513 65.6676C15.5182 65.508 15.4905 65.3431 15.4629 65.1835C15.4354 65.0239 15.4077 64.8589 15.3801 64.694C15.3248 64.3695 15.2751 64.045 15.231 63.7205C15.1757 63.3374 15.1316 62.9543 15.0874 62.566C15.0377 62.1031 14.9936 61.6402 14.9549 61.1721C14.9273 60.8582 14.9107 60.539 14.8942 60.2198C14.8775 59.9272 14.861 59.6346 14.8555 59.342C14.85 59.3265 14.85 59.3096 14.8555 59.2941C14.8548 59.2934 14.8542 59.2926 14.8538 59.2917C14.8534 59.2908 14.8532 59.2898 14.8532 59.2888C14.8532 59.2878 14.8534 59.2868 14.8538 59.2859C14.8542 59.285 14.8548 59.2842 14.8555 59.2835C14.85 59.2782 14.85 59.2782 14.8555 59.2728C14.8548 59.2722 14.8542 59.2713 14.8538 59.2704C14.8534 59.2695 14.8532 59.2685 14.8532 59.2675C14.8532 59.2665 14.8534 59.2656 14.8538 59.2646C14.8542 59.2637 14.8548 59.2629 14.8555 59.2622C14.85 59.1452 14.8445 59.0282 14.8445 58.9111C14.8334 58.5653 14.8279 58.2195 14.8279 57.8737C14.8279 57.5598 14.8334 57.2512 14.8389 56.9374C14.85 56.5011 14.8665 56.0648 14.8885 55.6286C14.8885 55.5328 14.8996 55.4424 14.9053 55.3466C14.9107 55.2509 14.9163 55.1603 14.9218 55.0646C14.9329 54.8624 14.9494 54.6602 14.9716 54.4581C14.9706 54.4208 14.9725 54.3834 14.9771 54.3464C14.9937 54.1176 15.0156 53.8889 15.0377 53.6602C15.0819 53.2026 15.1372 52.7398 15.1978 52.2823C15.231 52.0535 15.2586 51.8247 15.2973 51.596C15.3194 51.4364 15.3469 51.2714 15.3746 51.1065C15.3967 50.9416 15.4243 50.7767 15.4575 50.6118C15.496 50.3936 15.5349 50.1701 15.579 49.9467C15.6011 49.8136 15.6287 49.6806 15.6564 49.5476C15.7612 49.0156 15.8771 48.4837 16.0041 47.9517C16.1311 47.4144 16.2748 46.8824 16.4293 46.3504C16.5784 45.813 16.7441 45.2757 16.9209 44.7384C17.0037 44.4671 17.0921 44.2011 17.1915 43.9351C17.3737 43.3977 17.567 42.8657 17.7825 42.339C17.8818 42.0783 17.9867 41.8123 18.1027 41.5517C18.3237 41.025 18.5556 40.4983 18.793 39.9822C18.9145 39.7215 19.0361 39.4609 19.1685 39.2002C19.4171 38.6841 19.6767 38.1681 19.9583 37.6627C20.2289 37.1466 20.5216 36.6412 20.8199 36.1411C21.1181 35.641 21.4273 35.1409 21.7531 34.6462C21.9022 34.4014 22.0678 34.1514 22.2391 33.912C22.5705 33.4226 22.9183 32.9331 23.2718 32.4543C23.9844 31.4859 24.752 30.5336 25.5638 29.6079ZM14.966 54.4581C14.9495 54.6602 14.9329 54.8624 14.9218 55.0646C14.9329 54.8624 14.9494 54.6602 14.9716 54.4581C14.9706 54.4208 14.9725 54.3834 14.9771 54.3464C14.9716 54.3836 14.9716 54.4208 14.966 54.4581ZM15.6508 49.5476C15.6287 49.6806 15.6011 49.8136 15.579 49.9467C15.6011 49.8136 15.6287 49.6806 15.6564 49.5476H15.6508ZM29.4075 90.0601V90.0654C29.4075 90.0707 29.413 90.0707 29.4185 90.0707L29.4075 90.0601Z" fill="#3F3D56"/>
</g>
</svg>
