<svg width="125" height="185" viewBox="0 0 125 185" fill="none" xmlns="http://www.w3.org/2000/svg">
<g id="Tree">
<path id="Vector" d="M100.062 141.11C113.691 141.11 124.738 130.467 124.738 117.338C124.738 104.21 113.691 93.5671 100.062 93.5671C86.4343 93.5671 75.3865 104.21 75.3865 117.338C75.3865 130.467 86.4343 141.11 100.062 141.11Z" fill="#2AED37"/>
<path id="Vector_2" opacity="0.2" d="M81.8426 101.461C79.5408 106.648 79.2286 112.454 80.9616 117.842C82.6947 123.23 86.36 127.849 91.3027 130.873C96.2455 133.898 102.143 135.13 107.943 134.351C113.742 133.572 119.065 130.832 122.96 126.62C121.554 129.789 119.45 132.625 116.793 134.933C114.136 137.24 110.99 138.964 107.572 139.984C104.155 141.004 100.549 141.296 97.003 140.84C93.4571 140.384 90.0565 139.191 87.0367 137.344C84.017 135.496 81.4504 133.038 79.5147 130.14C77.579 127.241 76.3205 123.973 75.8264 120.559C75.3323 117.146 75.6145 113.67 76.6533 110.373C77.6921 107.075 79.4628 104.034 81.8426 101.461Z" fill="black"/>
<path id="Vector_3" d="M100.13 117.339H100.198L101.418 184.734H98.8421L100.13 117.339Z" fill="#3F3D56"/>
<path id="Vector_4" d="M50.1357 96.7796C77.6126 96.7796 99.887 75.3218 99.887 48.8523C99.887 22.3827 77.6126 0.924942 50.1357 0.924942C22.6589 0.924942 0.38446 22.3827 0.38446 48.8523C0.38446 75.3218 22.6589 96.7796 50.1357 96.7796Z" fill="#2AED37"/>
<path id="Vector_5" opacity="0.2" d="M13.401 16.8406C8.76038 27.298 8.13085 39.0043 11.6249 49.8676C15.119 60.731 22.5091 70.0435 32.4745 76.1412C42.4399 82.2388 54.3314 84.7242 66.0239 83.1532C77.7164 81.5822 88.4481 76.0572 96.3013 67.5654C93.4664 73.9545 89.2236 79.6734 83.8666 84.326C78.5096 88.9785 72.1667 92.4535 65.2772 94.5101C58.3878 96.5667 51.1165 97.1558 43.9673 96.2365C36.818 95.3173 29.9617 92.9117 23.8734 89.1863C17.785 85.461 12.6102 80.5051 8.70752 74.6619C4.80479 68.8187 2.26746 62.2279 1.27132 55.3463C0.275173 48.4646 0.844029 41.4566 2.93848 34.8078C5.03294 28.159 8.60291 22.0283 13.401 16.8406Z" fill="black"/>
<path id="Vector_6" d="M50.2723 48.852H50.4093L52.8696 184.734H47.6756L50.2723 48.852Z" fill="#3F3D56"/>
</g>
</svg>
